<svg width="26" height="28" viewBox="0 0 26 28" fill="none" xmlns="http://www.w3.org/2000/svg">
<path d="M8.89425 17.0474L7.58341 26.9166L13.0001 23.6666L18.4167 26.9166L17.1059 17.0366M20.5834 10.6666C20.5834 14.8547 17.1882 18.2499 13.0001 18.2499C8.81192 18.2499 5.41675 14.8547 5.41675 10.6666C5.41675 6.47843 8.81192 3.08325 13.0001 3.08325C17.1882 3.08325 20.5834 6.47843 20.5834 10.6666Z" stroke="#BFE15D" stroke-width="2" stroke-linecap="round" stroke-linejoin="round"/>
<path d="M12.992 14.08C12.6133 14.08 12.2667 14.0133 11.952 13.88C11.6373 13.7413 11.3733 13.544 11.16 13.288L11.88 12.576C11.9867 12.736 12.1387 12.864 12.336 12.96C12.5333 13.056 12.7467 13.104 12.976 13.104C13.1893 13.104 13.3733 13.0667 13.528 12.992C13.6827 12.912 13.8027 12.8027 13.888 12.664C13.9787 12.52 14.024 12.3547 14.024 12.168C14.024 11.9707 13.9787 11.8027 13.888 11.664C13.8027 11.5253 13.6773 11.4187 13.512 11.344C13.3467 11.2693 13.1493 11.232 12.92 11.232C12.8187 11.232 12.7147 11.24 12.608 11.256C12.5013 11.2667 12.4107 11.2853 12.336 11.312L12.816 10.704C12.9493 10.6613 13.08 10.6267 13.208 10.6C13.3413 10.568 13.464 10.552 13.576 10.552C13.864 10.552 14.1227 10.6213 14.352 10.76C14.5867 10.8933 14.7707 11.0853 14.904 11.336C15.0427 11.5813 15.112 11.872 15.112 12.208C15.112 12.5813 15.024 12.9093 14.848 13.192C14.672 13.4693 14.424 13.688 14.104 13.848C13.7893 14.0027 13.4187 14.08 12.992 14.08ZM12.336 11.312V10.688L13.776 9.01598L15.024 8.99998L13.536 10.704L12.336 11.312ZM11.472 9.31998V8.37598H15.024V8.99998L14.136 9.31998H11.472Z" fill="#BFE15D"/>
</svg>
