<svg width="26" height="28" viewBox="0 0 26 28" fill="none" xmlns="http://www.w3.org/2000/svg">
<path d="M8.89425 17.0474L7.58341 26.9166L13.0001 23.6666L18.4167 26.9166L17.1059 17.0366M20.5834 10.6666C20.5834 14.8547 17.1882 18.2499 13.0001 18.2499C8.81192 18.2499 5.41675 14.8547 5.41675 10.6666C5.41675 6.47843 8.81192 3.08325 13.0001 3.08325C17.1882 3.08325 20.5834 6.47843 20.5834 10.6666Z" stroke="#BFE15D" stroke-width="2" stroke-linecap="round" stroke-linejoin="round"/>
<path d="M11.208 13.3761L13.328 11.1601C13.4773 11.0001 13.5973 10.8588 13.688 10.7361C13.784 10.6081 13.8533 10.4881 13.896 10.3761C13.9387 10.2588 13.96 10.1414 13.96 10.0241C13.96 9.78942 13.8827 9.60542 13.728 9.47209C13.5787 9.33876 13.384 9.27209 13.144 9.27209C12.8987 9.27209 12.68 9.33609 12.488 9.46409C12.3013 9.59209 12.1253 9.79476 11.96 10.0721L11.216 9.44009C11.44 9.06142 11.7173 8.77609 12.048 8.58409C12.384 8.38676 12.768 8.28809 13.2 8.28809C13.568 8.28809 13.888 8.36009 14.16 8.50409C14.4373 8.64809 14.6507 8.84809 14.8 9.10409C14.9493 9.36009 15.024 9.65876 15.024 10.0001C15.024 10.2294 14.9947 10.4374 14.936 10.6241C14.8827 10.8108 14.7893 10.9974 14.656 11.1841C14.528 11.3654 14.3493 11.5708 14.12 11.8001L12.576 13.3761H11.208ZM11.208 14.0001V13.3761L12.136 13.0561H15.144V14.0001H11.208Z" fill="#BFE15D"/>
</svg>
